<?xml version="1.0" encoding="UTF-8" standalone="no"?>
<svg width="32px" height="45px" viewBox="0 0 32 45" version="1.1" xmlns="http://www.w3.org/2000/svg" xmlns:xlink="http://www.w3.org/1999/xlink" xmlns:sketch="http://www.bohemiancoding.com/sketch/ns">
    <!-- Generator: Sketch 3.1.1 (8761) - http://www.bohemiancoding.com/sketch -->
    <title>coffee_cup 2</title>
    <desc>Created with Sketch.</desc>
    <defs></defs>
    <g id="Messenger" stroke="none" stroke-width="1" fill="none" fill-rule="evenodd" sketch:type="MSPage">
        <g sketch:type="MSArtboardGroup" transform="translate(-90.000000, -28.000000)" id="Top-Menu">
            <g sketch:type="MSLayerGroup" transform="translate(-1.000000, -1.000000)">
                <g id="logo" transform="translate(91.000000, 28.000000)" sketch:type="MSShapeGroup">
                    <g id="coffee_cup-2" transform="translate(0.000000, 2.000000)">
                        <g id="XMLID_1_">
                            <path d="M0.0395786164,5.88075439 C0.0108207547,6.40952632 0.0128679245,6.94215789 0.0406509434,7.47189474 C0.0775974843,8.19461404 0.461685535,8.61338596 1.23298113,8.77549123 C1.49901572,8.83145614 1.60371384,8.9462807 1.6324717,9.18750877 C1.72586164,9.98549123 1.8358239,10.7816404 1.93233333,11.5785614 C1.94568868,11.6875965 1.96713522,11.8516316 1.90455031,11.9027719 C1.52874843,12.209614 1.60059434,12.600307 1.64884906,12.9795175 C1.97239937,15.4980351 2.30716038,18.0145263 2.63275786,20.5319825 C2.95728302,23.0504035 3.27254717,25.5689211 3.5972673,28.0872456 C3.92072013,30.6047018 4.25041195,33.1221579 4.5780566,35.6397105 C4.69416038,36.5322544 4.81328616,37.4247982 4.92315094,38.3173421 C4.94674214,38.5162105 4.97969182,38.7254035 5.15321384,38.8344386 C5.47364465,39.0351404 5.48183333,39.3430439 5.52492138,39.6372456 C5.66880818,40.6272456 6.12259748,42.6902281 6.15135535,42.8060175 C6.36699057,43.6667193 6.23148742,43.9909298 8.34621384,43.9909298 C10.874761,43.9909298 13.4021384,43.9898684 15.930783,43.9898684 L15.930783,43.9832105 L24.0873899,43.9832105 C24.2383931,43.9909298 25.4707893,44.2340877 25.7686038,39.7790877 C25.7943396,39.3931228 25.9133679,39.0621579 26.1312453,38.7099649 C26.4669811,38.1657544 26.3972799,37.4951404 26.4886226,36.8786579 C26.9076101,34.0495351 27.3050535,31.2174211 27.7035692,28.3854035 C28.1286981,25.3623333 28.5436887,22.3382982 28.9688176,19.3152281 C29.2604906,17.2465526 29.5676635,15.1805789 29.8530975,13.111807 C29.9176321,12.6457544 30.0770189,12.1391754 29.4657925,11.8343596 C29.2799874,11.7417281 29.3743522,11.539 29.3918019,11.3913684 C29.4810975,10.6253246 29.5930094,9.86198246 29.6814277,9.09584211 C29.7060912,8.8835614 29.8089371,8.81119298 30.0183333,8.74557895 C30.7136887,8.52461404 31.0165723,8.10005263 31.0228113,7.39952632 C31.0270031,6.90163158 31.0288553,6.40277193 31.0228113,5.90487719 C31.0116006,5.11557895 30.4744623,4.57908772 29.6261541,4.52601754 C29.1998553,4.49996491 28.6884528,4.63891228 28.3669497,4.46136842 C28.0229277,4.27031579 28.2959811,3.75022807 28.2139969,3.37970175 C28.057827,2.67338596 27.5515912,2.25364912 26.7268742,2.23049123 C26.009,2.20926316 25.2889811,2.22373684 24.5711069,2.22373684 C21.8495409,2.22373684 19.1289497,2.21601754 16.408456,2.23145614 C15.967827,2.23338596 15.7768553,2.16005263 15.7881635,1.6862807 C15.8179937,0.479175439 15.2777358,-0.00135087719 13.9867516,-0.00328070175 C12.3108019,-0.00424561404 10.6326101,0.0227719298 8.95636792,-0.0129298246 C7.90665723,-0.0360877193 7.04099686,0.466631579 7.17445283,1.64092982 C7.22689937,2.10312281 7.05737421,2.26233333 6.55620755,2.23338596 C5.85685535,2.19478947 5.15331132,2.21698246 4.45191195,2.22663158 C3.37861006,2.24014035 2.85492453,2.73803509 2.83533019,3.74829825 C2.81992767,4.51926316 2.81992767,4.51926316 1.98594969,4.52022807 C1.83192453,4.52022807 1.67780189,4.51540351 1.52377673,4.52215789 C0.642421384,4.55689474 0.0837389937,5.05285965 0.0395786164,5.88075439 L0.0395786164,5.88075439 Z M1.70538994,7.79514035 C1.29254403,7.79996491 1.1023522,7.66487719 1.12613836,7.26250877 C1.15187421,6.83022807 1.14661006,6.39601754 1.15489623,5.96277193 C1.16211006,5.59514035 1.43009434,5.58163158 1.72381447,5.58259649 C4.01099057,5.58645614 6.29719182,5.58742105 8.5832956,5.58838596 C9.61955346,5.58742105 10.6568836,5.58645614 11.6931415,5.58549123 C11.879044,5.56908772 12.0659214,5.54014035 12.2517264,5.54014035 C16.0619969,5.53724561 19.8722673,5.53724561 23.6825377,5.54014035 C23.8683428,5.54014035 24.0553176,5.57005263 24.2411226,5.58645614 C24.9087925,5.58742105 25.5752925,5.58838596 26.2427673,5.58935088 C27.2686918,5.58742105 28.2958836,5.59610526 29.3218082,5.57873684 C29.7295849,5.57198246 29.9298176,5.6935614 29.9062264,6.10268421 C29.8836101,6.50408772 29.8926761,6.90645614 29.9050566,7.30785965 C29.9152925,7.65040351 29.7858333,7.83470175 29.3925818,7.77294737 C29.2220818,7.77873684 29.0515818,7.79031579 28.8800094,7.79031579 L5.29339623,7.79031579 C4.09736164,7.79031579 2.90083962,7.78066667 1.70538994,7.79514035 L1.70538994,7.79514035 Z M2.71903145,9.24926316 C2.66054088,8.91829825 2.74272013,8.84207018 3.08771698,8.84592982 C4.38688994,8.86233333 5.68606289,8.85268421 6.98523585,8.85268421 C8.30185849,8.85268421 9.61750629,8.86329825 10.9341289,8.84496491 C11.2822453,8.84014035 11.4106321,8.9144386 11.3963019,9.26470175 C11.3663742,9.97005263 11.3685189,10.6782982 11.3951321,11.3835526 C11.4074151,11.7212719 11.299695,11.8167982 10.9391981,11.8149649 C8.46095283,11.8004912 5.9817327,11.7985614 3.50368239,11.8168947 C3.11033333,11.8197895 3.01275157,11.6808421 2.98292138,11.3519035 C2.91936164,10.648386 2.8402044,9.94496491 2.71903145,9.24926316 L2.71903145,9.24926316 Z M2.7776195,13.2671579 C2.72722013,12.8966316 2.84849057,12.8059298 3.23569811,12.8088246 C5.61519182,12.8252281 7.9948805,12.8165439 10.3734969,12.8165439 C11.3809969,12.8165439 12.4008774,12.8088246 12.7623491,12.8097895 C17.9489025,12.8195351 23.1353585,12.8204035 28.3218145,12.8097895 C28.6925472,12.8088246 28.7962704,12.9072456 28.7427516,13.2478596 C28.5403742,14.5504912 28.364805,15.8569825 28.1666195,17.1605789 C28.0473962,17.9469825 25.7223962,34.7142632 25.6626384,35.0587368 C25.5208962,35.8827719 25.3648239,36.7077719 25.3031164,37.5385614 C25.2660723,38.0297018 25.0484874,38.0874035 24.601717,38.0856667 C21.1272799,38.0702281 17.6529403,38.0769825 14.1773333,38.0769825 C11.6097925,38.0769825 9.04225157,38.071 6.47471069,38.0827719 C6.13068868,38.0847982 5.95404717,38.0393509 5.93143082,37.6562807 C5.89662893,37.048386 5.77633333,36.4453158 5.69824843,35.8393509 C5.37265094,33.3209298 5.05124528,30.8015439 4.72672013,28.2831228 C4.40219497,25.7637368 4.07562264,23.2453158 3.74992767,20.7267018 C3.42871698,18.2393509 3.11140566,15.751807 2.7776195,13.2671579 L2.7776195,13.2671579 Z M3.93602516,4.41119298 C3.61559434,3.89978947 4.0182044,3.25908772 4.6549717,3.25908772 L4.72174843,3.25908772 C7.9856195,3.25812281 11.2495881,3.25522807 14.5133616,3.25812281 C18.1069245,3.26198246 21.7014623,3.27066667 25.2951226,3.27645614 L25.3134497,3.27645614 C25.5958616,3.2735614 25.8793459,3.26680702 26.1617579,3.26584211 C27.2319403,3.26487719 27.2319403,3.26584211 27.1024811,4.31470175 L27.1024811,4.31566667 C27.1024811,4.31663158 27.1024811,4.3185614 27.1013113,4.31952632 C27.1218805,4.31952632 27.1443994,4.31759649 27.1690629,4.31470175 C27.1443994,4.52022807 27.0356069,4.554 26.914434,4.54435088 C26.8086635,4.55592982 26.6803742,4.50864912 26.5877642,4.50768421 L26.585717,4.50768421 C21.8449591,4.51829825 17.1042013,4.51636842 12.362566,4.51636842 C9.7302956,4.51636842 7.09909748,4.51733333 4.46682704,4.51347368 C4.38357547,4.51347368 4.29125786,4.53373684 4.20595912,4.52794737 L4.20478931,4.52794737 C4.10243082,4.53277193 4.00289937,4.51829825 3.93602516,4.41119298 L3.93602516,4.41119298 Z M6.60124528,39.6159211 C6.53856289,39.2223333 6.58701258,39.0610965 7.09315094,39.0660175 C9.95041509,39.0920702 12.8074843,39.0785614 15.6636761,39.0785614 C18.5382925,39.0785614 21.411934,39.0775965 24.2865503,39.0804912 C24.4980912,39.0815526 24.7920063,38.9743509 24.7281541,39.3854035 C24.595673,40.243307 24.5063774,41.106807 24.3789654,41.964614 C24.2752421,42.6668772 24.0965535,42.8001316 23.3437799,42.8001316 C18.2116226,42.801193 13.0796604,42.801193 7.94760063,42.8001316 C7.19580189,42.8001316 6.98933019,42.6207544 6.90110692,41.910386 C6.80557233,41.1454035 6.72241824,40.3782982 6.60124528,39.6159211 L6.60124528,39.6159211 Z M8.69442767,2.23145614 C8.27943711,2.23724561 8.20456918,2.0712807 8.22816038,1.7412807 C8.2528239,1.4035614 8.17581132,1.034 8.73849057,1.03882456 C10.1239371,1.05040351 11.5094811,1.05136842 12.8949277,1.05715789 C13.2892516,1.05715789 13.6826981,1.04847368 14.0758522,1.06101754 C14.2832987,1.06777193 14.6191321,0.96645614 14.6459403,1.22891228 C14.6643648,1.42092982 14.7476164,1.63803509 14.7188585,1.83873684 C14.7168113,1.85803509 14.712717,1.87733333 14.7075503,1.89663158 C14.6973145,1.93426316 14.6828868,1.97189474 14.6623176,2.0085614 C14.6365818,2.05391228 14.6016824,2.09733333 14.5545,2.13882456 C14.5350031,2.15426316 14.514434,2.17066667 14.4908428,2.18707018 C12.5589969,2.19961404 10.6271509,2.20154386 8.69442767,2.23145614 L8.69442767,2.23145614 Z M12.3013459,9.33031579 C12.2755126,8.90478947 12.4399686,8.84110526 12.8455031,8.844 C15.3771698,8.86136842 17.908739,8.85268421 20.4404057,8.85268421 L21.8771289,8.85268421 C23.981522,8.85268421 26.0859151,8.84978947 28.1892358,8.8594386 C28.3380943,8.86040351 28.644195,8.70505263 28.5907736,9.08715789 C28.4777893,9.89864912 28.3709465,10.7111053 28.2775566,11.5245263 C28.2517233,11.7504123 28.1522893,11.8120702 27.9191069,11.8112018 C22.8384214,11.8063772 17.7577358,11.8053158 12.6779277,11.8121667 C12.378066,11.8131316 12.3010535,11.7176053 12.307195,11.4512895 C12.3237673,10.7439123 12.3443365,10.0356667 12.3013459,9.33031579 L12.3013459,9.33031579 Z" id="Shape" fill="#2980B9"></path>
                            <path d="M3.08771698,8.84592982 C2.74262264,8.84207018 2.66054088,8.91829825 2.71903145,9.24926316 C2.8402044,9.94496491 2.91945912,10.648386 2.98301887,11.3519035 C3.01284906,11.6808421 3.11043082,11.819886 3.50377987,11.8168947 C5.98192767,11.7986579 8.46124528,11.8004912 10.9392956,11.8149649 C11.2997925,11.8168947 11.4076101,11.7212719 11.3952296,11.3835526 C11.3686164,10.6782018 11.3664717,9.97005263 11.3963994,9.26470175 C11.4106321,8.9144386 11.2824403,8.84014035 10.9342264,8.84496491 C9.61760377,8.86329825 8.30195597,8.85268421 6.98533333,8.85268421 C5.68616038,8.85268421 4.38688994,8.86233333 3.08771698,8.84592982 L3.08771698,8.84592982 Z" id="Shape" fill="#3498DB"></path>
                            <path d="M3.23560063,12.8088246 C2.8482956,12.8059298 2.72712264,12.8966316 2.77752201,13.2671579 C3.11130818,15.751807 3.42871698,18.2393509 3.75012264,20.7268947 C4.07572013,23.2455088 4.40229245,25.7637368 4.72691509,28.2833158 C5.05144025,30.8017368 5.37284591,33.3211228 5.6984434,35.8395439 C5.7765283,36.4455088 5.89662893,37.0485789 5.93162579,37.6564737 C5.95424214,38.0395439 6.13088365,38.0848947 6.47490566,38.0829649 C9.04244654,38.071386 11.6099874,38.0771754 14.1775283,38.0771754 C17.6530377,38.0771754 21.1273774,38.0704211 24.6019119,38.0858596 C25.0486824,38.0877895 25.2662673,38.0298947 25.3032138,37.5387544 C25.3650189,36.7079649 25.5208962,35.8829649 25.6627358,35.0589298 C25.7222987,34.7144561 28.0474937,17.9471754 28.166717,17.1607719 C28.3649025,15.8571754 28.5404717,14.5506842 28.7428491,13.2480526 C28.7962704,12.9074386 28.6924497,12.8090175 28.3219119,12.8099825 C23.135456,12.8205965 17.949,12.8197281 12.7624465,12.8099825 C12.4009748,12.8090175 11.3810943,12.8167368 10.3735943,12.8167368 C7.9948805,12.8165439 5.61528931,12.8252281 3.23560063,12.8088246 L3.23560063,12.8088246 Z" id="Shape" fill="#5AAFEE"></path>
                            <path d="M4.6549717,3.25908772 C4.0182044,3.25908772 3.61559434,3.89978947 3.93602516,4.41119298 C4.00280189,4.51829825 4.10243082,4.53277193 4.20508176,4.52794737 C4.12699686,4.52215789 4.05515094,4.49417544 4.00280189,4.41119298 C3.68246855,3.89978947 4.08507862,3.25908772 4.72174843,3.25908772 L4.6549717,3.25908772 L4.6549717,3.25908772 Z" id="Shape" fill="#60B1C6"></path>
                            <path id="Shape" fill="#3498DB" d="M4.20615409,4.52847368 C4.29145283,4.53447368 4.38377044,4.51347368 4.46702201,4.51347368 L4.40424214,4.51347368 C4.34175472,4.51347368 4.27293082,4.52447368 4.20615409,4.52847368 L4.20615409,4.52847368 Z"></path>
                            <path d="M7.09315094,39.0660175 C6.58691509,39.0610965 6.53866038,39.2223333 6.60124528,39.6159211 C6.72241824,40.3781053 6.80566981,41.1454035 6.90110692,41.910386 C6.98942767,42.6205614 7.19580189,42.8001316 7.94760063,42.8001316 C13.0796604,42.801193 18.2116226,42.801193 23.3437799,42.8001316 C24.0965535,42.8001316 24.2752421,42.6668772 24.3789654,41.964614 C24.5063774,41.106614 24.595673,40.243114 24.7281541,39.3854035 C24.7918113,38.9743509 24.4980912,39.0815526 24.2865503,39.0804912 C21.411934,39.0777895 18.5382925,39.0785614 15.6636761,39.0785614 C12.8074843,39.0785614 9.95031761,39.0920702 7.09315094,39.0660175 L7.09315094,39.0660175 Z" id="Shape" fill="#3498DB"></path>
                            <path d="M12.8455031,8.844 C12.4398711,8.84110526 12.2755126,8.90478947 12.3012484,9.33031579 C12.3443365,10.0356667 12.3237673,10.7439123 12.3073899,11.451193 C12.3012484,11.7175088 12.378261,11.8130351 12.6781226,11.8120702 C17.7577358,11.8053158 22.8386164,11.8062807 27.9192044,11.8111053 C28.1524843,11.8120702 28.2519182,11.7503158 28.2777516,11.5244298 C28.3711415,10.7110088 28.4779843,9.89855263 28.5909686,9.0870614 C28.6443899,8.70495614 28.3382893,8.86030702 28.1894308,8.85934211 C26.0861101,8.84969298 23.981717,8.85258772 21.8773239,8.85258772 L20.4406006,8.85258772 C17.908739,8.85268421 15.3770723,8.86136842 12.8455031,8.844 L12.8455031,8.844 Z" id="Shape" fill="#3498DB"></path>
                            <path id="Shape" fill="#3498DB" d="M26.0099748,3.57861404 C25.8947484,3.57761404 25.7807893,3.57461404 25.6659528,3.57461404 C25.7808868,3.57561404 25.8948459,3.57861404 26.0099748,3.57861404 L26.0099748,3.57861404 Z"></path>
                            <path id="Shape" fill="#60B1C6" d="M26.6527862,4.50768421 L26.5880566,4.50768421 C26.6804717,4.50868421 26.808956,4.55768421 26.9147264,4.54568421 C26.8253333,4.53968421 26.7267767,4.50768421 26.6527862,4.50768421 L26.6527862,4.50768421 Z"></path>
                            <path id="Shape" fill="#3498DB" d="M26.9147264,4.54435088 C27.0358994,4.554 27.1446918,4.52022807 27.1693553,4.31470175 C27.1446918,4.31759649 27.122173,4.31952632 27.1016038,4.31952632 C27.0811321,4.4835614 27.0060692,4.53566667 26.9147264,4.54435088 L26.9147264,4.54435088 Z"></path>
                            <path id="Shape" fill="#60B1C6" d="M27.0523742,4.31870175 C27.0680742,4.32070175 27.0849742,4.32170175 27.1028742,4.31970175 C27.1040742,4.31870175 27.1040742,4.31670175 27.1040742,4.31570175 L27.1040742,4.31470175 C27.0860742,4.31670175 27.0680742,4.31870175 27.0523742,4.31870175 L27.0523742,4.31870175 Z"></path>
                            <path d="M29.9436604,7.34973684 C29.9436604,7.61508772 29.7243208,7.83219298 29.456239,7.83219298 L1.6082956,7.83219298 C1.34021384,7.83219298 1.12087421,7.61508772 1.12087421,7.34973684 L1.12087421,5.99885965 C1.12087421,5.73350877 1.34021384,5.51640351 1.6082956,5.51640351 L29.4563365,5.51640351 C29.7244182,5.51640351 29.9437579,5.73350877 29.9437579,5.99885965 L29.9437579,7.34973684 L29.9436604,7.34973684 Z" id="Shape" fill="#ECF0F1"></path>
                            <path d="M27.4090692,4.22988596 C27.4090692,4.49523684 27.1897296,4.71234211 26.9216478,4.71234211 L4.3108522,4.71234211 C4.04277044,4.71234211 3.82343082,4.49523684 3.82343082,4.22988596 L3.82343082,3.64514912 C3.82343082,3.37979825 4.04277044,3.16269298 4.3108522,3.16269298 L26.9216478,3.16269298 C27.1897296,3.16269298 27.4090692,3.37979825 27.4090692,3.64514912 L27.4090692,4.22988596 L27.4090692,4.22988596 Z" id="Shape" fill="#ECF0F1"></path>
                            <path d="M14.8232642,1.78663158 C14.8232642,2.05198246 14.6039245,2.26908772 14.3358428,2.26908772 L8.62706604,2.26908772 C8.35898428,2.26908772 8.13964465,2.05198246 8.13964465,1.78663158 L8.13964465,1.45798246 C8.13964465,1.19263158 8.35898428,0.975526316 8.62706604,0.975526316 L14.3358428,0.975526316 C14.6039245,0.975526316 14.8232642,1.19263158 14.8232642,1.45798246 L14.8232642,1.78663158 L14.8232642,1.78663158 Z" id="Shape" fill="#ECF0F1"></path>
                        </g>
                        <path d="M22.5951006,30.9110614 C22.5835975,31.0562807 22.4539434,31.1747719 22.3069371,31.1747719 L8.73868553,31.1747719 C8.59167925,31.1747719 8.46202516,31.0561842 8.45052201,30.9110614 L7.51759748,19.1367193 C7.50609434,18.991693 7.61703145,18.8730088 7.76384277,18.8730088 L23.2819748,18.8730088 C23.4289811,18.8730088 23.5398208,18.991693 23.5282201,19.1367193 L22.5951006,30.9110614 L22.5951006,30.9110614 Z" id="Shape" fill="#ECF0F1"></path>
                        <g id="Group" transform="translate(7.506289, 35.026316)" fill="#ECF0F1">
                            <path d="M2.31593396,0.748289474 C2.31593396,0.849798246 2.23219497,0.932780702 2.12954403,0.932780702 L0.181710692,0.932780702 C0.0790597484,0.932780702 -0.00467924528,0.849798246 -0.00467924528,0.748289474 L-0.00467924528,0.152359649 C-0.00467924528,0.0508508772 0.0790597484,-0.0321315789 0.181710692,-0.0321315789 L2.12954403,-0.0321315789 C2.23219497,-0.0321315789 2.31593396,0.0508508772 2.31593396,0.152359649 L2.31593396,0.748289474 L2.31593396,0.748289474 Z" id="Shape"></path>
                            <path d="M5.81415723,0.748289474 C5.81415723,0.849798246 5.73041824,0.932780702 5.62786478,0.932780702 L3.68003145,0.932780702 C3.57747799,0.932780702 3.49364151,0.849798246 3.49364151,0.748289474 L3.49364151,0.152359649 C3.49364151,0.0508508772 3.57747799,-0.0321315789 3.68003145,-0.0321315789 L5.62786478,-0.0321315789 C5.73041824,-0.0321315789 5.81415723,0.0508508772 5.81415723,0.152359649 L5.81415723,0.748289474 L5.81415723,0.748289474 Z" id="Shape"></path>
                            <path d="M9.31228302,0.748289474 C9.31228302,0.849798246 9.22854403,0.932780702 9.12589308,0.932780702 L7.17815723,0.932780702 C7.07560377,0.932780702 6.9917673,0.849798246 6.9917673,0.748289474 L6.9917673,0.152359649 C6.9917673,0.0508508772 7.07560377,-0.0321315789 7.17815723,-0.0321315789 L9.12589308,-0.0321315789 C9.22854403,-0.0321315789 9.31228302,0.0508508772 9.31228302,0.152359649 L9.31228302,0.748289474 L9.31228302,0.748289474 Z" id="Shape"></path>
                            <path d="M12.8106038,0.748289474 C12.8106038,0.849798246 12.7267673,0.932780702 12.6242138,0.932780702 L10.676478,0.932780702 C10.5739245,0.932780702 10.4901855,0.849798246 10.4901855,0.748289474 L10.4901855,0.152359649 C10.4901855,0.0508508772 10.5739245,-0.0321315789 10.676478,-0.0321315789 L12.6242138,-0.0321315789 C12.7267673,-0.0321315789 12.8106038,0.0508508772 12.8106038,0.152359649 L12.8106038,0.748289474 L12.8106038,0.748289474 Z" id="Shape"></path>
                            <path d="M16.3089245,0.748289474 C16.3089245,0.849798246 16.2250881,0.932780702 16.1225346,0.932780702 L14.1747987,0.932780702 C14.0721478,0.932780702 13.9884088,0.849798246 13.9884088,0.748289474 L13.9884088,0.152359649 C13.9884088,0.0508508772 14.0721478,-0.0321315789 14.1747987,-0.0321315789 L16.1225346,-0.0321315789 C16.2250881,-0.0321315789 16.3089245,0.0508508772 16.3089245,0.152359649 L16.3089245,0.748289474 L16.3089245,0.748289474 Z" id="Shape"></path>
                        </g>
                        <g id="Group" transform="translate(5.849057, 14.956140)" fill="#ECF0F1">
                            <path d="M2.35356289,0.859157895 C2.35356289,0.958833333 2.27109119,1.0405614 2.17029245,1.0405614 L0.224213836,1.0405614 C0.123415094,1.0405614 0.0409433962,0.958833333 0.0409433962,0.859157895 L0.0409433962,0.186131579 C0.0409433962,0.0864561404 0.123415094,0.00472807018 0.224213836,0.00472807018 L2.17019497,0.00472807018 C2.27099371,0.00472807018 2.35346541,0.0864561404 2.35346541,0.186131579 L2.35356289,0.859157895 L2.35356289,0.859157895 Z" id="Shape"></path>
                            <path d="M5.83960063,0.859157895 C5.83960063,0.958833333 5.75703145,1.0405614 5.65633019,1.0405614 L3.71025157,1.0405614 C3.60955031,1.0405614 3.52698113,0.958833333 3.52698113,0.859157895 L3.52698113,0.186131579 C3.52698113,0.0864561404 3.60955031,0.00472807018 3.71025157,0.00472807018 L5.65633019,0.00472807018 C5.75703145,0.00472807018 5.83960063,0.0864561404 5.83960063,0.186131579 L5.83960063,0.859157895 L5.83960063,0.859157895 Z" id="Shape"></path>
                            <path d="M9.32563836,0.859157895 C9.32563836,0.958833333 9.24316667,1.0405614 9.14236792,1.0405614 L7.19648428,1.0405614 C7.09568553,1.0405614 7.01321384,0.958833333 7.01321384,0.859157895 L7.01321384,0.186131579 C7.01321384,0.0864561404 7.09568553,0.00472807018 7.19648428,0.00472807018 L9.14236792,0.00472807018 C9.24316667,0.00472807018 9.32563836,0.0864561404 9.32563836,0.186131579 L9.32563836,0.859157895 L9.32563836,0.859157895 Z" id="Shape"></path>
                            <path d="M12.8115786,0.859157895 C12.8115786,0.958833333 12.7291069,1.0405614 12.6283082,1.0405614 L10.682327,1.0405614 C10.5815283,1.0405614 10.4990566,0.958833333 10.4990566,0.859157895 L10.4990566,0.186131579 C10.4990566,0.0864561404 10.5815283,0.00472807018 10.682327,0.00472807018 L12.6283082,0.00472807018 C12.7291069,0.00472807018 12.8115786,0.0864561404 12.8115786,0.186131579 L12.8115786,0.859157895 L12.8115786,0.859157895 Z" id="Shape"></path>
                            <path d="M16.2976164,0.859157895 C16.2976164,0.958833333 16.2151447,1.0405614 16.1143459,1.0405614 L14.1683648,1.0405614 C14.067566,1.0405614 13.9850943,0.958833333 13.9850943,0.859157895 L13.9850943,0.186131579 C13.9850943,0.0864561404 14.067566,0.00472807018 14.1683648,0.00472807018 L16.1143459,0.00472807018 C16.2151447,0.00472807018 16.2976164,0.0864561404 16.2976164,0.186131579 L16.2976164,0.859157895 L16.2976164,0.859157895 Z" id="Shape"></path>
                            <path d="M19.7836541,0.859157895 C19.7836541,0.958833333 19.7010849,1.0405614 19.6003836,1.0405614 L17.6541101,1.0405614 C17.5534088,1.0405614 17.4708396,0.958833333 17.4708396,0.859157895 L17.4708396,0.186131579 C17.4708396,0.0864561404 17.5534088,0.00472807018 17.6541101,0.00472807018 L19.6003836,0.00472807018 C19.7010849,0.00472807018 19.7836541,0.0864561404 19.7836541,0.186131579 L19.7836541,0.859157895 L19.7836541,0.859157895 Z" id="Shape"></path>
                        </g>
                    </g>
                </g>
            </g>
        </g>
    </g>
</svg>