<?xml version="1.0" encoding="UTF-8" standalone="no"?>
<svg width="29px" height="30px" viewBox="0 0 29 30" version="1.1" xmlns="http://www.w3.org/2000/svg" xmlns:xlink="http://www.w3.org/1999/xlink" xmlns:sketch="http://www.bohemiancoding.com/sketch/ns">
    <!-- Generator: Sketch 3.2.2 (9983) - http://www.bohemiancoding.com/sketch -->
    <title>FB icon</title>
    <desc>Created with Sketch.</desc>
    <defs></defs>
    <g id="Login" stroke="none" stroke-width="1" fill="none" fill-rule="evenodd" sketch:type="MSPage">
        <g sketch:type="MSArtboardGroup" transform="translate(-542.000000, -703.000000)" id="LOGIN-FORM" fill="#FFFFFF">
            <g sketch:type="MSLayerGroup" transform="translate(516.000000, 263.000000)">
                <path d="M28.0547349,440.545714 C27.1863594,440.545714 26.4827586,441.250094 26.4827586,442.119431 L26.4827586,467.486284 C26.4827586,468.355407 27.1863594,469.06 28.0547349,469.06 L41.6962446,469.06 L41.6962446,458.017811 L37.9844384,458.017811 L37.9844384,453.714397 L41.6962446,453.714397 L41.6962446,450.540789 C41.6962446,446.85778 43.9432209,444.852334 47.2250549,444.852334 C48.7970311,444.852334 50.148205,444.969534 50.5418928,445.021885 L50.5418928,448.870812 L48.2657821,448.871881 C46.4809007,448.871881 46.1353434,449.720918 46.1353434,450.966857 L46.1353434,453.714397 L50.3920588,453.714397 L49.8377584,458.017811 L46.1353434,458.017811 L46.1353434,469.06 L53.393541,469.06 C54.261703,469.06 54.9655172,468.355407 54.9655172,467.486284 L54.9655172,442.119431 C54.9655172,441.250094 54.261703,440.545714 53.393541,440.545714 L28.0547349,440.545714 Z" id="FB-icon" sketch:type="MSShapeGroup"></path>
            </g>
        </g>
    </g>
</svg>